<svg xmlns="http://www.w3.org/2000/svg" width="45.122" height="46.642" viewBox="0 0 50.122 47.642">
  <g id="rabbit_design" data-name="rabbit design" transform="translate(39.222 47.642) rotate(-163)">
    <path id="Path_200" data-name="Path 200" d="M8.457,11.344,5.467,7.189S4.573,5.78,4.689,5.3s.2-.516,1.718-1.336,4.377-2.248,4.377-2.248.907-.759.77-1.2S10.289,0,10.289,0a3.745,3.745,0,0,0-.859.144C9,.275,6.1,1.624,3.873,2.424a17.83,17.83,0,0,0-3.015.943c-1.93,1.29,0,2.314,0,2.314L2.031,7.039l.9,4.491L.858,13.3Z" transform="translate(9.413 5.614)" fill="#5b7e82"/>
    <path id="Path_201" data-name="Path 201" d="M1.916,0c.442-.007,2.037,3.44,2.037,7.292A17.648,17.648,0,0,1,3.8,10.187a4.636,4.636,0,0,1-.9,1.949c-.023.507.7,1.645.534,1.944-.234.413-1.716-.027-2.009-.027s-.091-.579-.291-1.041.13-.717-.067-1.507A18.317,18.317,0,0,1,.024,6.974,24.9,24.9,0,0,1,.16,2.636C.617.633,1.625,0,1.916,0Z" transform="translate(34.422 37.545) rotate(-172)" fill="#5b7e82"/>
    <path id="Path_199" data-name="Path 199" d="M.934,0,0,6.737,1.827,9.394l1.094.74L3.27,10.1A.826.826,0,0,0,3.754,9.5a2.551,2.551,0,0,0-.432-1.219l-.444-.256L1.74,6.758,3.631,0Z" transform="matrix(-0.996, -0.087, 0.087, -0.996, 29.031, 12.795)" fill="#5b7e82"/>
    <path id="Union_4" data-name="Union 4" d="M20.12,37.232l-2.985-2.559-2.474-7.014-3.424-1.941a15.427,15.427,0,0,1-2.4-.733S7.7,23.637,6.967,22.716C6.154,21.846,5.45,21.06,5.45,21.06H3.935s-.966.857-1.493.821A1.8,1.8,0,0,1,.7,20.872c-.2-.181-.6-.277-.662-.5A1.412,1.412,0,0,1,0,20.042,2.376,2.376,0,0,1,.276,19v0l.006-.012c.252-.5.8-1.09,1.1-1.634a10.728,10.728,0,0,0,.793-1.883,18.214,18.214,0,0,1,4.471-2.711c.207-.059.43-.115.654-.167,0-.007,0-.014,0-.021,0-.307.186-.543.185-1.052a2.347,2.347,0,0,0-.013-.242v-.053h0l0-.026v-.014h0l0-.013h0l-.005-.041h0c-.02-.161-.047-.335-.077-.52h0l0-.012v-.022l0-.013v-.013l0-.01V10.53l0-.011h0l0-.013v0a20.518,20.518,0,0,1-.336-2.639h0c0-.019,0-.039,0-.058V7.681h0c0-.1,0-.2,0-.3V7.251h0l0-.039h0c.009-.184.024-.366.049-.545v0l0-.018a24.906,24.906,0,0,1,.738-4.277C8.546.448,9.632-.034,9.921,0h.044l.006,0h0L9.983.03h0l0,0h0c.322.245.878,1.938,1.038,4.144v.039l0,.039v.133l0,.06h0c.017.3.026.616.027.934q0,.074,0,.149h0v.021h0V5.7h0a15.11,15.11,0,0,1-.136,1.766v0l0,.032a17.635,17.635,0,0,1-.559,2.844,4.635,4.635,0,0,1-1.166,1.8v.005h0a3.23,3.23,0,0,0,.169,1.06l1.412,3.267.413.388c4.673-2.813,11.533-5.458,15.07-5.676,5.8-.358,10.763,3.994,11.371,7.443a1.506,1.506,0,0,1,.022.2l3.327-.993h0a4.925,4.925,0,0,1-.286,2.377h0l0,.005h0l0,.005h0l-.01.017h0l0,0v0l0,0h0l0,0v0l0,0v0l0,.005a2.3,2.3,0,0,1-1.714.877,3.736,3.736,0,0,1-1.015,0,3.387,3.387,0,0,1-.522-.131,3.242,3.242,0,0,1-1.653,1.864,4.176,4.176,0,0,1-2.092.313,3.221,3.221,0,0,0-2.3.528,3.455,3.455,0,0,0-1.032,2.72,5.107,5.107,0,0,0,.043.692,21.223,21.223,0,0,1,.307,2.429.675.675,0,0,1-.039.287,5.025,5.025,0,0,1-1.391.762l-5.162,2.973a5.849,5.849,0,0,1-1.956.886,2.724,2.724,0,0,1-.4.028c-.819,0-1.822-.3-1.823-.67a.215.215,0,0,1,.007-.053,6.347,6.347,0,0,1,1.131-1.519s2.6-1.391,4.539-2.408c1.821-.953,2.124-1.407,2.124-1.933,0-.035,0-.07,0-.106-.037-.574-1.926-6.374-2.12-7l-.017-.054a4.632,4.632,0,0,0-.883-.407c-.6-.006-3.817,3.393-3.817,3.393a30.571,30.571,0,0,1-3.2,1.92l.3.268.7,8.08,1.892.748s.835,1.183.606,1.962a.7.7,0,0,1-.72.55A1.1,1.1,0,0,1,20.12,37.232Z" transform="translate(41.014 37.28) rotate(180)" fill="#b2eef5"/>
    <path id="Intersection_14" data-name="Intersection 14" d="M0,14.965a1.169,1.169,0,0,0,.759-.857c.121-.658-.6-1.645-.6-1.645l.282-.733L2.14,4.2V1.225L1.967,0,2,0h.044l.006,0h0L2.057.03h0l0,0h0C2.381.277,2.938,1.97,3.1,4.176v.039l0,.039v.133c0,.02,0,.04,0,.06h0c.017.3.027.616.027.934q0,.074,0,.149h0c0,.007,0,.014,0,.021h0c0,.011,0,.022,0,.034s0,.008,0,.013,0,.009,0,.013,0,.016,0,.025,0,.005,0,.008,0,.015,0,.023,0,0,0,.007V5.7h0A15.1,15.1,0,0,1,3,7.471v0l0,.032a17.635,17.635,0,0,1-.559,2.844,4.635,4.635,0,0,1-1.166,1.8v.005h0a3.232,3.232,0,0,0,.169,1.06l.156.361a6.974,6.974,0,0,0-.1,2.478Z" transform="translate(33.088 37.28) rotate(180)" fill="#87ccd4"/>
    <path id="Path_202" data-name="Path 202" d="M1.032.447,0,1.2.314,0Z" transform="translate(39.982 16.409)" fill="#141313"/>
    <path id="Path_378" data-name="Path 378" d="M1.023,2.489A1.023,1.023,0,0,1,0,1.466C0,.9,1.224,0,1.789,0s.257.9.257,1.466A1.023,1.023,0,0,1,1.023,2.489Z" transform="translate(36.182 19.122)" fill="#5b7e82"/>
    <path id="Path_204" data-name="Path 204" d="M2.779,0,.235,2.595S-.294,1.472.235.908A6.7,6.7,0,0,1,2.779,0Z" transform="translate(36.025 18.902)" fill="#75b1b8"/>
    <path id="Intersection_15" data-name="Intersection 15" d="M0,17.351A.213.213,0,0,1,.007,17.3a1.279,1.279,0,0,1,.161-.334c.347.274,1.085.57,2.494.08a18.511,18.511,0,0,0,6-3.422c.915-1.022.19-3.135,0-4.875a15.928,15.928,0,0,1,0-3.282s.888.084,1.264.085c2.664.011,5.485,0,6.242-1.4A6.847,6.847,0,0,0,16.853,0a6.2,6.2,0,0,1,.874,2.156,1.5,1.5,0,0,1,.022.2l.37-.11a1.439,1.439,0,0,0,.93.938c.641.182,1.4-.37,2.06-1.068a3.651,3.651,0,0,1-.32,1.625h0l0,.005h0l0,.005h0l-.01.017h0l0,0v0l0,0h0l0,0v0l0,0v0l0,.005a2.3,2.3,0,0,1-1.714.877,3.736,3.736,0,0,1-1.015,0,3.387,3.387,0,0,1-.522-.131A3.242,3.242,0,0,1,15.851,6.4a4.176,4.176,0,0,1-2.092.313,3.221,3.221,0,0,0-2.3.528,3.455,3.455,0,0,0-1.032,2.72,5.1,5.1,0,0,0,.043.692,21.232,21.232,0,0,1,.307,2.429.674.674,0,0,1-.039.287,5.025,5.025,0,0,1-1.391.762L4.182,17.106a5.849,5.849,0,0,1-1.956.886,2.723,2.723,0,0,1-.4.028C1,18.02,0,17.725,0,17.351Z" transform="translate(21.11 20.793) rotate(180)" fill="#75b1b8"/>
    <ellipse id="Ellipse_33" data-name="Ellipse 33" cx="0.578" cy="0.559" rx="0.578" ry="0.559" transform="translate(36.778 19.661)"/>
    <path id="Path_203" data-name="Path 203" d="M1.887,0s.045.716.242,2.026a9.76,9.76,0,0,1,.423,1.706,17.728,17.728,0,0,1-.665,5.185C1.418,10.753.675,11.078.675,11.078a22.411,22.411,0,0,1-.635-4.3A10.773,10.773,0,0,1,.4,2.523,5.89,5.89,0,0,1,.8,1.478,4.632,4.632,0,0,1,1.887,0Z" transform="translate(30.693 25.196)" fill="#ffe0e0"/>
    <path id="Intersection_1" data-name="Intersection 1" d="M8.171,7.7S7.037,6.351,6.3,5.43c-.813-.869-1.517-1.656-1.517-1.656H3.268S2.3,4.632,1.775,4.6A1.8,1.8,0,0,1,.032,3.586L0,3.559V3.552L.365,2.388S2.827.956,3.494,3.034a4.427,4.427,0,0,0,2.795-.168C7.394,2.305,8.6,0,8.6,0V2.138h.578A6.763,6.763,0,0,0,7.918,4.451a3.056,3.056,0,0,0,.432,2.5A7.635,7.635,0,0,0,10.4,8.393,15.122,15.122,0,0,1,8.171,7.7Z" transform="translate(40.347 19.994) rotate(180)" fill="#cecece"/>
    <path id="Path_212" data-name="Path 212" d="M.462.266.6.1A.6.6,0,0,1,0,0a.449.449,0,0,0,.15.228A.431.431,0,0,0,.462.266Z" transform="translate(37.009 20.372)" fill="#fff"/>
    <path id="Intersection_2" data-name="Intersection 2" d="M2.143,8.849A16.6,16.6,0,0,1,.42,7.23c-.861-1.327-.157-1.9,0-3.32,0,0,1.013,1.516,3.678.8S10.143.756,12.864,0c0,0-.872.551-1.961,1.376a3.08,3.08,0,0,0-.911,2.534l-.028.026a4.149,4.149,0,0,0-.815-.372c-.6-.006-3.817,3.393-3.817,3.393a30.863,30.863,0,0,1-3.152,1.9Z" transform="translate(25.483 20.486) rotate(180)" fill="#d0a8d6"/>
    <path id="Intersection_3" data-name="Intersection 3" d="M.516,3.071A3.375,3.375,0,0,1,0,2.942L.258,1.914s-.042.625.334.558a4.1,4.1,0,0,0,1.167-.825l-.263.7A4.868,4.868,0,0,0,2.943,1.2,4.464,4.464,0,0,0,3.585,0a4.269,4.269,0,0,1-.34,2.195,2.3,2.3,0,0,1-1.714.877A3.815,3.815,0,0,1,1,3.107,3.148,3.148,0,0,1,.516,3.071Z" transform="translate(3.599 19.194) rotate(180)" fill="#d0a8d6"/>
    <path id="Intersection_12" data-name="Intersection 12" d="M12.618,20.649,9.634,18.09,7.16,11.075,3.736,9.135a15.426,15.426,0,0,1-2.4-.733S.769,7.727.175,7.006A4.2,4.2,0,0,1,.264,4.2c.519-.5.513-1.948.773-2.327C2.2.178,1.644-.338,2.084.21c.112.139.218.866.459.858.416-.014.955-.6,1.126-.793l.021.019,0,0c-.238.651-1.749,5.026.03,6.459A38.007,38.007,0,0,0,9.25,10.074l.79,6.978s.789,1.116.925,1.385a2.624,2.624,0,0,0,2.726,1.281,1.149,1.149,0,0,1-.034.429.7.7,0,0,1-.72.55A1.1,1.1,0,0,1,12.618,20.649Z" transform="translate(33.512 20.697) rotate(180)" fill="#87ccd4"/>
    <path id="Path_315" data-name="Path 315" d="M0,0" transform="translate(31.938 20.639)" fill="none" stroke="#707070" stroke-width="1"/>
    <path id="Path_316" data-name="Path 316" d="M0,0" transform="translate(32.449 20.025)" fill="none" stroke="#707070" stroke-width="1"/>
    <path id="Path_317" data-name="Path 317" d="M2.676,4.857S.123,5.064,0,3.79,2.254,0,2.254,0,.714,2.3.819,3.517,2.676,4.857,2.676,4.857Z" transform="translate(31.28 17.507)" fill="#75b1b8"/>
    <path id="Intersection_13" data-name="Intersection 13" d="M8.171,7.7S7.037,6.351,6.3,5.43c-.813-.869-1.517-1.656-1.517-1.656H3.268S2.3,4.632,1.775,4.6A1.8,1.8,0,0,1,.032,3.586L0,3.559V3.552L.365,2.388S2.827.956,3.494,3.034a4.427,4.427,0,0,0,2.795-.168C7.394,2.305,8.6,0,8.6,0V2.138h.578A6.763,6.763,0,0,0,7.918,4.451a3.056,3.056,0,0,0,.432,2.5A7.635,7.635,0,0,0,10.4,8.393,15.122,15.122,0,0,1,8.171,7.7Z" transform="translate(40.347 19.994) rotate(180)" fill="#d0a8d6"/>
    <ellipse id="Ellipse_44" data-name="Ellipse 44" cx="1.022" cy="1.022" rx="1.022" ry="1.022" transform="translate(4.897 17.117)" fill="#90cdd4" opacity="0.534"/>
    <ellipse id="Ellipse_45" data-name="Ellipse 45" cx="0.405" cy="0.405" rx="0.405" ry="0.405" transform="translate(6.516 16.307)" fill="#90cdd4" opacity="0.47"/>
    <path id="Path_314" data-name="Path 314" d="M.195,5.174S-.906,1.852,2.127.692A4.117,4.117,0,0,0,3.317,0,8.943,8.943,0,0,0,1.893,1.654a2.39,2.39,0,0,0-.325,1.655l.56-1.19,1.19-.687L2.662,2.846l.231,2.328V7.013L1.259,6.156Z" transform="translate(26.634 22.36) rotate(-166)" fill="#629ea5" opacity="0.414"/>
    <path id="Path_318" data-name="Path 318" d="M.092,0A7.96,7.96,0,0,0,.315,1.913,8.336,8.336,0,0,0,2.38,5.295,6.218,6.218,0,0,1,.022,2.337,18.729,18.729,0,0,1,.092,0Z" transform="translate(7.758 20.717) rotate(-73)" fill="#5b7e82"/>
  </g>
</svg>
