<svg xmlns="http://www.w3.org/2000/svg" width="34.842" height="46.457" viewBox="0 0 34.842 46.457">
  <path id="Icon_awesome-award" data-name="Icon awesome-award" d="M8.812,32.9c-.788-.788-.377-.566-2.279-1.075a6.546,6.546,0,0,1-2.307-1.209L.109,40.713a1.452,1.452,0,0,0,1.4,2l4.781-.182L9.578,46a1.451,1.451,0,0,0,2.4-.45L16.7,33.973A6.511,6.511,0,0,1,8.812,32.9Zm25.921,7.809L30.616,30.619a6.532,6.532,0,0,1-2.307,1.209c-1.912.512-1.493.289-2.279,1.075a6.513,6.513,0,0,1-7.888,1.07l4.723,11.579a1.452,1.452,0,0,0,2.4.45l3.289-3.473,4.781.182a1.452,1.452,0,0,0,1.4-2ZM23.863,30.85c1.386-1.411,1.545-1.289,3.52-1.827a3.687,3.687,0,0,0,2.583-2.629c.679-2.577.5-2.266,2.355-4.151a3.764,3.764,0,0,0,.945-3.591c-.678-2.575-.679-2.216,0-4.793a3.764,3.764,0,0,0-.945-3.591c-1.852-1.885-1.676-1.575-2.355-4.151a3.687,3.687,0,0,0-2.583-2.629c-2.53-.69-2.225-.51-4.078-2.4A3.61,3.61,0,0,0,19.776.126c-2.529.69-2.176.69-4.709,0a3.608,3.608,0,0,0-3.529.963C9.686,2.974,9.991,2.795,7.46,3.485A3.687,3.687,0,0,0,4.877,6.115c-.678,2.576-.5,2.266-2.355,4.151a3.762,3.762,0,0,0-.945,3.591c.678,2.573.679,2.214,0,4.793a3.766,3.766,0,0,0,.945,3.592c1.852,1.885,1.676,1.574,2.355,4.151A3.687,3.687,0,0,0,7.46,29.022c2.031.553,2.182.466,3.519,1.827a3.606,3.606,0,0,0,4.513.528,3.6,3.6,0,0,1,3.859,0A3.6,3.6,0,0,0,23.863,30.85Zm-15-14.884a8.561,8.561,0,1,1,8.56,8.712,8.637,8.637,0,0,1-8.56-8.712Z" transform="translate(0 0.001)" fill="#ffe165"/>
</svg>
