<svg xmlns="http://www.w3.org/2000/svg" width="42.92" height="50.684" viewBox="0 0 42.92 50.684">
  <g id="fire" transform="translate(0 0)">
    <path id="Path_529" data-name="Path 529" d="M53.492-130.367c.966,2.229-1.236,6.064-1.273,8.237-.032,1.936,4.054,7.173,4.054,7.173a6.261,6.261,0,0,0,2.172-4.293c.121-2.185-1.727-5.493-.97-6.432a7.059,7.059,0,0,1,3.619-2.507,11.027,11.027,0,0,0,0,5.46c.729,3.308,2.13,5.675,2.914,7.773,1.273,3.406,4.91,6.159,4.91,7.754a15.931,15.931,0,0,1-4.033,10.419,21.27,21.27,0,0,1-5.127,4.3,26.886,26.886,0,0,1-13.908,3.728c-2.469,0-8.427-.027-12.706-1.4a14.083,14.083,0,0,1-6.72-5.356s6.639,2.865,6.72.878C33.25-97.2,26-101.764,26-105.324a47.186,47.186,0,0,1,1.415-10.158c.664-2.855,2.223-8.177,3.447-9.788.457-.6-.79,3.325.712,3.752s2.56-1.392,2.56-1.392.326,4.2,2.28,6.72a4.134,4.134,0,0,0,5.161,1.233s-2.992-6.153-3.941-9c-.92-2.754.749-5.946,1.016-7.505.208-1.213,4.035,2.456,5,1.851.585-.368,1.511-2.328.993-4.786s-3.064-5.048-3.064-5.048a11.37,11.37,0,0,1,5.379,2.543C48.984-134.9,51.642-134.637,53.492-130.367Z" transform="translate(-26 139.441)" fill="#ff751f"/>
    <path id="Path_530" data-name="Path 530" d="M16.859,4.954c.6,1.21-.741,3.277-.756,4.453-.013,1.048,2.524,3.9,2.524,3.9a3.268,3.268,0,0,0,1.324-2.315c.067-1.182-1.083-2.979-.621-3.485A4.4,4.4,0,0,1,21.553,6.16a5.261,5.261,0,0,0,.019,2.955A24.306,24.306,0,0,0,23.4,13.332c.8,1.848,3.048,3.351,3.054,4.214A7.959,7.959,0,0,1,24,23.17a12.63,12.63,0,0,1-3.145,2.308,18.212,18.212,0,0,1-8.56,1.967,32.532,32.532,0,0,1-7.837-.8A8.615,8.615,0,0,1,.3,23.72s4.1,1.575,4.145.5C4.5,22.83.013,20.334,0,18.407a22.49,22.49,0,0,1,.837-5.492c.4-1.543,1.342-4.417,2.091-5.285.28-.324-.475,1.8.452,2.033s1.573-.744,1.573-.744a7.379,7.379,0,0,0,1.429,3.645,2.814,2.814,0,0,0,3.186.686S7.7,9.91,7.107,8.368c-.577-1.494.441-3.215.6-4.058.124-.656,2.5,1.344,3.086,1.02a2.555,2.555,0,0,0,.6-2.587A7.053,7.053,0,0,0,9.482,0a7.614,7.614,0,0,1,3.325,1.4C14.064,2.483,15.7,2.636,16.859,4.954Z" transform="matrix(0.998, -0.07, 0.07, 0.998, 7.466, 18.027)" fill="#ffba1f"/>
  </g>
</svg>
