<svg xmlns="http://www.w3.org/2000/svg" xmlns:xlink="http://www.w3.org/1999/xlink" width="229.566" height="217.378" viewBox="0 0 229.566 217.378">
  <defs>
    <filter id="Union_4" x="0" y="0" width="229.566" height="217.378" filterUnits="userSpaceOnUse">
      <feOffset dy="10" input="SourceAlpha"/>
      <feGaussianBlur stdDeviation="3" result="blur"/>
      <feFlood flood-opacity="0.161"/>
      <feComposite operator="in" in2="blur"/>
      <feComposite in="SourceGraphic"/>
    </filter>
  </defs>
  <g id="rabbit_design" data-name="rabbit design" transform="translate(188.799 198.378) rotate(-169)">
    <path id="Path_200" data-name="Path 200" d="M37.768,50.663,24.415,32.1s-3.993-6.29-3.473-8.415.915-2.3,7.673-5.966S48.163,7.685,48.163,7.685,52.212,4.3,51.6,2.331,45.95,0,45.95,0a16.736,16.736,0,0,0-3.835.645c-1.908.583-14.86,6.608-24.819,10.18C11.793,12.8,6.97,12.94,3.832,15.037c-8.621,5.76,0,10.334,0,10.334l5.24,6.064L13.109,51.49l-9.277,7.9Z" transform="translate(42.037 25.072)" fill="#2b4f72"/>
    <path id="Path_201" data-name="Path 201" d="M8.559,0c1.974-.029,9.1,15.364,9.1,32.566a78.813,78.813,0,0,1-.7,12.926c-.7,4.766-3.205,7.058-4.036,8.706-.1,2.262,3.141,7.345,2.384,8.683-1.044,1.846-7.665-.121-8.971-.121s-.409-2.586-1.3-4.649c-.877-2.032.58-3.2-.3-6.73C3.514,46.516.109,38.558.109,31.146c0-5.848-.489-14.576.6-19.373C2.754,2.828,7.256.019,8.559,0Z" transform="translate(153.726 167.671) rotate(-172)" fill="#2b4f72"/>
    <path id="Path_199" data-name="Path 199" d="M4.172,0,0,30.084,8.158,41.95l4.886,3.306L14.6,45.12A3.687,3.687,0,0,0,16.767,42.4c.295-1.982-1.929-5.442-1.929-5.442L12.857,35.82,7.771,30.181,16.215,0Z" transform="matrix(-0.996, -0.087, 0.087, -0.996, 129.651, 57.14)" fill="#2b4f72"/>
    <g transform="matrix(-0.98, 0.19, -0.19, -0.98, 223.18, 158.71)" filter="url(#Union_4)">
      <path id="Union_4-2" data-name="Union 4" d="M89.855,166.275l-13.329-11.43L65.478,123.52l-15.292-8.667a68.9,68.9,0,0,1-10.717-3.275s-5.065-6.019-8.358-10.131c-3.629-3.883-6.776-7.394-6.776-7.394H17.573s-4.316,3.829-6.668,3.665c-2.815-.195-5.855-.616-7.783-4.507C2.237,92.4.459,91.975.166,90.956A6.307,6.307,0,0,1,0,89.5a10.611,10.611,0,0,1,1.233-4.659l0-.008.026-.053c1.123-2.255,3.594-4.867,4.9-7.3a47.911,47.911,0,0,0,3.542-8.41s12.254-9.894,19.968-12.106c.923-.265,1.92-.515,2.919-.744,0-.032,0-.063,0-.094,0-1.37.829-2.426.828-4.7a10.477,10.477,0,0,0-.059-1.079l-.006-.055v-.013l0-.042,0-.016,0-.044v-.01l-.006-.055h0L33.324,50V50l-.006-.054v0l-.007-.056v0c-.007-.06-.015-.12-.022-.181v0c-.091-.719-.21-1.5-.345-2.324v-.006l-.009-.053,0-.026-.005-.032-.006-.038-.01-.059,0-.027-.005-.033-.007-.043,0-.024-.008-.049h0l-.009-.056,0-.013a91.63,91.63,0,0,1-1.5-11.783h0c0-.086-.006-.172-.008-.258v-.024l0-.057v-.27c0-.018,0-.036,0-.054v-.1c0-.022,0-.044,0-.065h0c-.007-.448-.005-.9,0-1.342v-.092c0-.028,0-.057,0-.085v-.148l0-.076v-.009l0-.074v-.015l0-.078v0q0-.088.008-.175h0c.038-.82.109-1.634.218-2.436v-.009l.011-.082c.814-5.791,1.544-14.5,3.3-19.1C38.166,2,43.015-.154,44.307.008h.036l.007,0h0l.01,0h0l.007,0h0l.006,0,0,0,.006,0,.005,0,.01,0,0,0,.006,0,.005,0,.006,0,.006,0,.005,0,.006,0,0,0,.012.006,0,0,.007,0,0,0,.007,0,0,0,.008,0h0L44.531.1h0L44.541.1l0,0,.04.028h0l.01.007h0C46.031,1.237,48.516,8.8,49.229,18.65v.02l0,.053,0,.025,0,.053v.021l.012.173,0,.039,0,.036,0,.048,0,.035,0,.061v.018l.005.083v.019l0,.065v.023l0,.064v.021l0,.073v.011c.005.089.01.177.015.266v0c.076,1.355.118,2.749.119,4.171q0,.332,0,.665h0c0,.031,0,.063,0,.095V24.8q0,.075,0,.151v.057c0,.02,0,.04,0,.06,0,.038,0,.073,0,.111v.036c0,.035,0,.067,0,.1v.03c0,.045,0,.089,0,.134h0a67.479,67.479,0,0,1-.608,7.886l0,.017-.02.142a78.757,78.757,0,0,1-2.5,12.7c-1.353,4.623-4.157,6.544-5.208,8.059l0,.024v0c-.192,1.1.307,2.97.755,4.734l6.3,14.592,1.845,1.731c20.87-12.561,51.5-24.375,67.3-25.35,25.887-1.6,48.065,17.839,50.781,33.24a6.73,6.73,0,0,1,.1.874L183.011,79.7h0c.016.141.783,6.893-1.279,10.615v0l-.013.023v0l-.013.023,0,0-.043.074,0,.005-.011.018,0,.008-.011.018,0,.006-.01.017,0,.008-.01.017,0,.007-.014.023c-2.27,3.7-7.654,3.916-7.654,3.916a16.684,16.684,0,0,1-4.535,0,15.126,15.126,0,0,1-2.333-.586,14.477,14.477,0,0,1-7.384,8.324c-3.156,1.568-6.292,1.482-9.344,1.4-3.577-.1-7.038-.2-10.28,2.36-3.932,3.106-4.609,8.67-4.607,12.146a22.805,22.805,0,0,0,.192,3.09,94.785,94.785,0,0,1,1.369,10.847,3.014,3.014,0,0,1-.172,1.28c-.751,1.252-6.214,3.4-6.214,3.4l-23.054,13.277s-4.81,3.364-8.733,3.958a12.159,12.159,0,0,1-1.8.124c-3.659,0-8.139-1.32-8.142-2.99a.96.96,0,0,1,.03-.238c.524-2.076,5.049-6.783,5.049-6.783s11.594-6.212,20.269-10.752c8.133-4.256,9.483-6.282,9.484-8.632,0-.157-.006-.315-.016-.475-.166-2.565-8.6-28.465-9.468-31.262-.025-.081-.051-.161-.077-.24a20.685,20.685,0,0,0-3.944-1.819c-2.7-.027-17.045,15.154-17.045,15.154a136.524,136.524,0,0,1-14.292,8.576l1.328,1.2,3.14,36.086,8.448,3.341s3.729,5.281,2.705,8.762a3.13,3.13,0,0,1-3.217,2.457A4.9,4.9,0,0,1,89.855,166.275Z" transform="translate(40.77 0) rotate(11)" fill="#d2e3e5"/>
    </g>
    <path id="Intersection_14" data-name="Intersection 14" d="M0,66.832a5.219,5.219,0,0,0,3.388-3.825C3.927,60.068.726,55.659.726,55.659l1.259-3.274L9.558,18.748V5.469L8.786,0A1.124,1.124,0,0,1,8.91.008h.036l.007,0h0l.01,0h0l.007,0,0,0,.007,0,0,0L9,.03l0,0,.01,0,0,0,.006,0,.005,0,.005,0,.006,0,.005,0,.006,0,0,0L9.07.06l0,0,.007,0,0,0,.007,0,0,0,.008,0h0L9.134.1h0L9.144.1l0,0,.04.028h0L9.2.141h0c1.436,1.095,3.921,8.657,4.635,18.508v.02c0,.018,0,.036,0,.053s0,.017,0,.025l0,.053c0,.007,0,.014,0,.021,0,.058.008.115.012.173l0,.039,0,.036c0,.017,0,.032,0,.049l0,.035,0,.061v.018c0,.028,0,.055.005.083v.019c0,.022,0,.043,0,.065v.023c0,.021,0,.042,0,.064v.021c0,.023,0,.049,0,.073,0,0,0,.007,0,.011.005.089.011.177.016.267v0c.076,1.355.118,2.749.119,4.171q0,.332,0,.665h0c0,.031,0,.063,0,.095V24.8c0,.05,0,.1,0,.15,0,.019,0,.038,0,.057s0,.04,0,.06c0,.038,0,.073,0,.111,0,.012,0,.023,0,.035,0,.035,0,.067,0,.1,0,.01,0,.02,0,.03l0,.133h0a67.41,67.41,0,0,1-.608,7.885l0,.018-.02.142a78.755,78.755,0,0,1-2.5,12.7c-1.353,4.623-4.157,6.544-5.208,8.059l0,.024a.005.005,0,0,1,0,0c-.192,1.1.307,2.97.755,4.734l.7,1.612c-1.382,4.064-.435,11.068-.435,11.068Z" transform="translate(147.766 166.488) rotate(180)" fill="#9cb1ce"/>
    <path id="Path_202" data-name="Path 202" d="M4.608,1.995,0,5.345,1.4,0Z" transform="translate(178.556 73.281)" fill="#141313"/>
    <path id="Path_378" data-name="Path 378" d="M4.567,11.114A4.567,4.567,0,0,1,0,6.547C0,4.024,5.466,0,7.988,0S9.135,4.024,9.135,6.547A4.567,4.567,0,0,1,4.567,11.114Z" transform="translate(161.585 85.396)" fill="#fff"/>
    <path id="Path_204" data-name="Path 204" d="M12.41,0,1.05,11.589s-2.362-5.013,0-7.532S12.41,0,12.41,0Z" transform="translate(160.883 84.415)" fill="#a8bdbf"/>
    <path id="Intersection_15" data-name="Intersection 15" d="M0,77.485a.953.953,0,0,1,.03-.238A5.71,5.71,0,0,1,.75,75.754c1.55,1.222,4.844,2.544,11.136.356,9.779-3.4,22.708-10.721,26.8-15.284s.85-14,0-21.769a71.134,71.134,0,0,1,0-14.656s3.967.375,5.647.381c11.9.048,24.5-.009,27.875-6.242A30.58,30.58,0,0,0,75.264,0a27.706,27.706,0,0,1,3.9,9.629,6.719,6.719,0,0,1,.1.874l1.653-.493A6.426,6.426,0,0,0,85.071,14.2c2.862.811,6.246-1.652,9.2-4.77-.02,2.272-.3,5.22-1.431,7.259v0l-.013.023v0l-.013.023,0,0-.043.074,0,.005-.011.018,0,.007-.011.018,0,.007-.01.017,0,.008-.01.017,0,.007-.014.023c-2.27,3.7-7.654,3.916-7.654,3.916a16.685,16.685,0,0,1-4.535,0,15.125,15.125,0,0,1-2.333-.586,14.476,14.476,0,0,1-7.384,8.324c-3.156,1.568-6.292,1.482-9.344,1.4-3.577-.1-7.038-.2-10.28,2.36-3.932,3.106-4.609,8.67-4.607,12.146a22.763,22.763,0,0,0,.192,3.089,94.821,94.821,0,0,1,1.369,10.847,3.012,3.012,0,0,1-.172,1.28c-.751,1.252-6.214,3.4-6.214,3.4L18.676,76.393s-4.81,3.364-8.733,3.958a12.162,12.162,0,0,1-1.8.124C4.484,80.475,0,79.155,0,77.485Z" transform="translate(94.274 92.858) rotate(180)" fill="#7591b8"/>
    <ellipse id="Ellipse_33" data-name="Ellipse 33" cx="2.582" cy="2.496" rx="2.582" ry="2.496" transform="translate(164.245 87.804)"/>
    <path id="Path_203" data-name="Path 203" d="M8.427,0s.2,3.2,1.082,9.046c.308,2.044,1.888,4.862,1.888,7.62a79.174,79.174,0,0,1-2.97,23.155c-2.1,8.2-5.413,9.65-5.413,9.65A100.08,100.08,0,0,1,.178,30.252C-.129,20.7-.274,18.829,1.788,11.267A26.3,26.3,0,0,1,3.551,6.6,20.685,20.685,0,0,1,8.427,0Z" transform="translate(137.073 112.524)" fill="#ffe0e0"/>
    <path id="Intersection_1" data-name="Intersection 1" d="M36.491,34.38s-5.065-6.019-8.358-10.131c-3.629-3.883-6.776-7.394-6.776-7.394H14.594s-4.316,3.829-6.668,3.665c-2.815-.195-5.855-.616-7.783-4.507Q.076,15.954,0,15.9c0-.021,0-.031,0-.031l1.629-5.2s10.994-6.4,13.973,2.886c.083.257,7.541,1.754,12.48-.752S38.394,0,38.394,0V9.549h2.583s-4.216,4.911-5.617,10.33c-1.162,4.491.326,9.439,1.93,11.146a34.1,34.1,0,0,0,9.177,6.457A67.534,67.534,0,0,1,36.491,34.38Z" transform="translate(180.185 89.292) rotate(180)" fill="#cecece"/>
    <path id="Path_212" data-name="Path 212" d="M2.062,1.186,2.7.462A2.659,2.659,0,0,1,0,0,2,2,0,0,0,.676,1.019,1.926,1.926,0,0,0,2.062,1.186Z" transform="translate(165.278 90.98)" fill="#fff"/>
    <path id="Intersection_2" data-name="Intersection 2" d="M9.571,39.521s-6.574-5.5-7.7-7.235c-3.844-5.926-.7-8.472,0-14.827,0,0,4.523,6.769,16.425,3.573S45.3,3.375,57.447,0c0,0-3.894,2.46-8.758,6.144s-4.067,11.315-4.067,11.315l-.125.116a18.529,18.529,0,0,0-3.64-1.66c-2.7-.027-17.045,15.154-17.045,15.154a137.832,137.832,0,0,1-14.077,8.47Z" transform="translate(113.804 91.489) rotate(180)" fill="#fff"/>
    <path id="Intersection_3" data-name="Intersection 3" d="M2.3,13.716A15.072,15.072,0,0,1,0,13.141L1.153,8.548s-.186,2.791,1.49,2.493S7.856,7.355,7.856,7.355l-1.172,3.12a21.738,21.738,0,0,0,6.46-5.13A19.937,19.937,0,0,0,16.009,0c.135,2.141.214,6.982-1.518,9.8-2.27,3.7-7.654,3.916-7.654,3.916a17.039,17.039,0,0,1-2.36.158A14.06,14.06,0,0,1,2.3,13.716Z" transform="translate(16.072 85.718) rotate(180)" fill="#fff"/>
    <path id="Intersection_12" data-name="Intersection 12" d="M56.352,92.216,43.023,80.786,31.975,49.461,16.684,40.794A68.89,68.89,0,0,1,5.967,37.518S3.432,34.506.783,31.288c-1.791-7.2-.007-12.16.4-12.517,2.32-2.213,2.291-8.7,3.451-10.392C9.836.793,7.343-1.511,9.306.936c.5.622.973,3.867,2.05,3.83,1.86-.061,4.266-2.663,5.028-3.543l.092.086L16.49,1.3c-1.063,2.909-7.811,22.446.136,28.843,8.595,6.919,24.686,14.845,24.686,14.845L44.84,76.151s3.524,4.983,4.133,6.185c2.459,4.849,7.339,6.008,12.175,5.721A5.13,5.13,0,0,1,61,89.972,3.13,3.13,0,0,1,57.78,92.43,4.891,4.891,0,0,1,56.352,92.216Z" transform="translate(149.661 92.43) rotate(180)" fill="#9cb1ce"/>
    <path id="Path_315" data-name="Path 315" d="M0,0" transform="translate(142.631 92.171)" fill="none" stroke="#707070" stroke-width="1"/>
    <path id="Path_316" data-name="Path 316" d="M0,0" transform="translate(144.915 89.431)" fill="none" stroke="#707070" stroke-width="1"/>
    <path id="Path_317" data-name="Path 317" d="M11.951,21.691S.551,22.616.019,16.925,10.064,0,10.064,0,3.187,10.282,3.658,15.7,11.951,21.691,11.951,21.691Z" transform="translate(139.694 78.185)" fill="#9cb1ce"/>
    <path id="Intersection_13" data-name="Intersection 13" d="M36.491,34.38s-5.065-6.019-8.358-10.131c-3.629-3.883-6.776-7.394-6.776-7.394H14.594s-4.316,3.829-6.668,3.665c-2.815-.195-5.855-.616-7.783-4.507Q.076,15.954,0,15.9c0-.021,0-.031,0-.031l1.629-5.2s10.994-6.4,13.973,2.886c.083.257,7.541,1.754,12.48-.752S38.394,0,38.394,0V9.549h2.583s-4.216,4.911-5.617,10.33c-1.162,4.491.326,9.439,1.93,11.146a34.1,34.1,0,0,0,9.177,6.457A67.534,67.534,0,0,1,36.491,34.38Z" transform="translate(180.185 89.292) rotate(180)" fill="#fff"/>
    <path id="Path_314" data-name="Path 314" d="M.869,23.105S-4.046,8.27,9.5,3.088A18.387,18.387,0,0,0,14.813,0a39.94,39.94,0,0,0-6.36,7.385A10.673,10.673,0,0,0,7,14.778L9.5,9.464l5.313-3.069-2.926,6.314,1.031,10.4v8.212l-7.3-3.825Z" transform="translate(118.943 99.856) rotate(-166)" fill="#a0b1c1" opacity="0.414"/>
    <path id="Path_318" data-name="Path 318" d="M.409,0s-.256,1.466,1,8.545,9.22,15.1,9.22,15.1S2.462,18.388.1,10.437C-.242,7.784.409,0,.409,0Z" transform="translate(34.648 92.517) rotate(-73)" fill="#5b7e82"/>
  </g>
</svg>
