<svg xmlns="http://www.w3.org/2000/svg" xmlns:xlink="http://www.w3.org/1999/xlink" width="229.565" height="217.378" viewBox="0 0 229.565 217.378">
  <defs>
    <filter id="Union_4" x="0" y="0" width="229.565" height="217.378" filterUnits="userSpaceOnUse">
      <feOffset dy="10" input="SourceAlpha"/>
      <feGaussianBlur stdDeviation="3" result="blur"/>
      <feFlood flood-opacity="0.161"/>
      <feComposite operator="in" in2="blur"/>
      <feComposite in="SourceGraphic"/>
    </filter>
  </defs>
  <g id="rabbit_design" data-name="rabbit design" transform="translate(8.774 33.788) rotate(-11)">
    <path id="Path_200" data-name="Path 200" d="M37.768,8.727,24.415,27.285s-3.993,6.29-3.473,8.415.915,2.3,7.673,5.966S48.163,51.7,48.163,51.7s4.05,3.388,3.44,5.354S45.95,59.39,45.95,59.39a16.736,16.736,0,0,1-3.835-.645c-1.908-.583-14.86-6.608-24.819-10.18-5.5-1.974-10.326-2.115-13.464-4.212-8.621-5.76,0-10.334,0-10.334l5.24-6.064L13.109,7.9,3.832,0Z" transform="translate(42.037 83.209)" fill="#2b4f72"/>
    <path id="Path_201" data-name="Path 201" d="M8.559,63.671c1.974.029,9.1-15.364,9.1-32.566a78.813,78.813,0,0,0-.7-12.926c-.7-4.766-3.205-7.058-4.036-8.706C12.813,7.211,16.056,2.128,15.3.79,14.255-1.056,7.634.911,6.328.911S5.919,3.5,5.029,5.56c-.877,2.032.58,3.2-.3,6.73C3.514,17.155.109,25.113.109,32.525c0,5.848-.489,14.576.6,19.373C2.754,60.843,7.256,63.652,8.559,63.671Z" transform="translate(162.587 63.051) rotate(172)" fill="#2b4f72"/>
    <path id="Path_199" data-name="Path 199" d="M4.172,45.256,0,15.172,8.158,3.306,13.044,0,14.6.137a3.687,3.687,0,0,1,2.162,2.716c.295,1.982-1.929,5.442-1.929,5.442L12.857,9.436,7.771,15.076l8.443,30.181Z" transform="translate(133.595 155.615) rotate(175)" fill="#2b4f72"/>
    <g transform="matrix(0.98, 0.19, -0.19, 0.98, -2.17, -34.84)" filter="url(#Union_4)">
      <path id="Union_4-2" data-name="Union 4" d="M89.855.213,76.526,11.643,65.478,42.968,50.187,51.636A68.9,68.9,0,0,0,39.47,54.911s-5.065,6.019-8.358,10.131c-3.629,3.883-6.776,7.394-6.776,7.394H17.573S13.256,68.607,10.9,68.77c-2.815.195-5.855.616-7.783,4.507-.885.808-2.663,1.236-2.955,2.254A6.307,6.307,0,0,0,0,76.983a10.611,10.611,0,0,0,1.233,4.659l0,.008.026.053c1.123,2.255,3.594,4.867,4.9,7.3a47.911,47.911,0,0,1,3.542,8.41s12.254,9.894,19.968,12.106c.923.265,1.92.515,2.919.744,0,.032,0,.063,0,.094,0,1.37.829,2.426.828,4.7a10.477,10.477,0,0,1-.059,1.079l-.006.055v.013l0,.042,0,.016,0,.044v.01l-.006.055h0l-.014.117v.007l-.006.054v0l-.007.056v0q-.011.09-.022.181v0c-.091.719-.21,1.5-.345,2.324v.006l-.009.053,0,.026-.005.032-.006.038-.01.059,0,.027-.005.033-.007.043,0,.024-.008.049h0l-.009.056,0,.013a91.631,91.631,0,0,0-1.5,11.783h0c0,.086-.006.172-.008.258v.024l0,.057v.27c0,.018,0,.036,0,.054v.1c0,.022,0,.044,0,.065h0c-.007.448-.005.9,0,1.342v.092c0,.028,0,.057,0,.085v.148l0,.076v.009l0,.074v.015l0,.078v0c0,.058,0,.117.008.175h0c.038.82.109,1.634.218,2.436v.009l.011.082c.814,5.791,1.544,14.5,3.3,19.1,3.265,8.574,8.114,10.729,9.407,10.567h.036l.007,0h0l.01,0h0l.007,0h0l.006,0,0,0,.006,0,.005,0,.01,0,0,0,.006,0,.005,0,.006,0,.006,0,.005,0,.006,0,0,0,.012-.006,0,0,.007,0,0,0,.007,0,0,0,.008,0h0l.028-.017h0l.009-.006,0,0,.04-.028h0l.01-.007h0c1.436-1.095,3.921-8.657,4.634-18.508v-.02l0-.053,0-.025,0-.053v-.021l.012-.173,0-.039,0-.036,0-.048,0-.035,0-.061v-.018l.005-.083v-.019l0-.065v-.023l0-.064v-.021l0-.073V146.9c.005-.089.01-.177.015-.266v0c.076-1.355.118-2.749.119-4.171q0-.332,0-.665h0c0-.031,0-.063,0-.095v-.007q0-.075,0-.151v-.057c0-.02,0-.04,0-.06,0-.038,0-.073,0-.111v-.036c0-.035,0-.067,0-.1v-.03c0-.045,0-.089,0-.134h0a67.478,67.478,0,0,0-.608-7.886l0-.017-.02-.142a78.756,78.756,0,0,0-2.5-12.7c-1.353-4.623-4.157-6.544-5.208-8.059l0-.024v0c-.192-1.1.307-2.97.755-4.734l6.3-14.592,1.845-1.731c20.87,12.561,51.5,24.375,67.3,25.35,25.887,1.6,48.065-17.839,50.781-33.24a6.73,6.73,0,0,0,.1-.874L183.01,86.79h0c.016-.141.783-6.893-1.279-10.615v0l-.013-.023v0l-.013-.023,0,0-.043-.074,0-.005-.011-.018,0-.008L181.63,76l0-.006-.01-.017,0-.008-.01-.017,0-.007-.014-.023c-2.27-3.7-7.654-3.916-7.654-3.916a16.684,16.684,0,0,0-4.535,0,15.126,15.126,0,0,0-2.333.586,14.477,14.477,0,0,0-7.384-8.324c-3.156-1.568-6.292-1.482-9.344-1.4-3.577.1-7.038.2-10.28-2.36-3.932-3.106-4.609-8.67-4.607-12.146a22.805,22.805,0,0,1,.192-3.09,94.785,94.785,0,0,0,1.369-10.847,3.014,3.014,0,0,0-.172-1.28c-.751-1.252-6.214-3.4-6.214-3.4L107.566,16.465s-4.81-3.364-8.733-3.958a12.159,12.159,0,0,0-1.8-.124c-3.659,0-8.139,1.32-8.142,2.99a.96.96,0,0,0,.03.238c.524,2.076,5.049,6.783,5.049,6.783s11.594,6.212,20.269,10.752c8.133,4.256,9.483,6.282,9.484,8.632,0,.157-.006.315-.016.475-.166,2.565-8.6,28.465-9.468,31.262-.025.081-.051.161-.077.24a20.685,20.685,0,0,1-3.944,1.819c-2.7.027-17.045-15.154-17.045-15.154A136.524,136.524,0,0,0,78.88,51.843l1.328-1.2,3.14-36.086L91.8,11.219S95.524,5.938,94.5,2.457A3.13,3.13,0,0,0,91.283,0,4.9,4.9,0,0,0,89.855.213Z" transform="translate(220.57 163.43) rotate(169)" fill="#d2e3e5"/>
    </g>
    <path id="Intersection_14" data-name="Intersection 14" d="M0,4.893A5.219,5.219,0,0,1,3.388,8.718C3.927,11.657.726,16.066.726,16.066L1.986,19.34,9.558,52.977V66.256l-.772,5.469a1.123,1.123,0,0,0,.124-.008h.036l.007,0h0l.01,0h0l.007,0,0,0,.007,0,0,0L9,71.7l0,0,.01,0,0,0,.006,0,.005,0,.005,0,.006,0,.005,0,.006,0,0,0,.012-.006,0,0,.007,0,0,0,.007,0,0,0,.008,0h0l.028-.017h0l.009-.005,0,0,.04-.028h0l.01-.007h0c1.436-1.095,3.921-8.657,4.635-18.508v-.02c0-.018,0-.036,0-.053s0-.017,0-.025l0-.053c0-.007,0-.014,0-.021,0-.058.008-.115.012-.173l0-.039,0-.036c0-.017,0-.032,0-.049l0-.035,0-.061v-.018c0-.028,0-.055.005-.083v-.019c0-.022,0-.043,0-.065V52.3c0-.021,0-.042,0-.064v-.021c0-.023,0-.049,0-.073,0,0,0-.007,0-.011.005-.089.011-.177.016-.267v0c.076-1.355.118-2.749.119-4.171q0-.332,0-.665h0c0-.031,0-.063,0-.095v-.007c0-.05,0-.1,0-.15,0-.019,0-.038,0-.057s0-.04,0-.06c0-.038,0-.073,0-.111,0-.012,0-.023,0-.035,0-.035,0-.067,0-.1,0-.01,0-.02,0-.03l0-.133h0a67.41,67.41,0,0,0-.608-7.885l0-.018-.02-.142a78.755,78.755,0,0,0-2.5-12.7c-1.353-4.623-4.157-6.544-5.208-8.059l0-.024a.005.005,0,0,0,0,0c-.192-1.1.307-2.97.755-4.734l.7-1.612C5.746,7,6.693,0,6.693,0Z" transform="translate(147.766 72.908) rotate(180)" fill="#9cb1ce"/>
    <path id="Path_202" data-name="Path 202" d="M4.608,3.351,0,0,1.4,5.345Z" transform="translate(178.555 89.045)" fill="#141313"/>
    <path id="Path_378" data-name="Path 378" d="M4.567,0A4.567,4.567,0,0,0,0,4.567c0,2.522,5.466,6.547,7.988,6.547S9.134,7.09,9.134,4.567A4.567,4.567,0,0,0,4.567,0Z" transform="translate(161.585 71.161)" fill="#fff"/>
    <path id="Path_204" data-name="Path 204" d="M12.41,11.589,1.05,0s-2.362,5.013,0,7.532S12.41,11.589,12.41,11.589Z" transform="translate(160.882 71.667)" fill="#a8bdbf"/>
    <path id="Intersection_15" data-name="Intersection 15" d="M0,2.99a.953.953,0,0,0,.03.238A5.71,5.71,0,0,0,.75,4.722C2.3,3.5,5.595,2.178,11.886,4.366c9.779,3.4,22.708,10.721,26.8,15.284s.85,14,0,21.769a71.134,71.134,0,0,0,0,14.656s3.967-.375,5.647-.381c11.9-.048,24.5.009,27.875,6.242a30.58,30.58,0,0,1,3.058,18.54,27.706,27.706,0,0,0,3.9-9.629,6.719,6.719,0,0,0,.1-.874l1.653.493a6.426,6.426,0,0,1,4.155-4.187c2.862-.811,6.246,1.652,9.2,4.77-.02-2.272-.3-5.22-1.431-7.259v0l-.013-.023v0l-.013-.023,0,0-.043-.074,0-.005-.011-.018,0-.007-.011-.018,0-.007-.01-.017,0-.008-.01-.017,0-.007-.014-.023c-2.27-3.7-7.654-3.916-7.654-3.916a16.685,16.685,0,0,0-4.535,0,15.125,15.125,0,0,0-2.333.586,14.476,14.476,0,0,0-7.384-8.324c-3.156-1.568-6.292-1.482-9.344-1.4-3.577.1-7.038.2-10.28-2.36-3.932-3.106-4.609-8.67-4.607-12.146a22.763,22.763,0,0,1,.192-3.089,94.821,94.821,0,0,0,1.369-10.847,3.012,3.012,0,0,0-.172-1.28c-.751-1.252-6.214-3.4-6.214-3.4L18.676,4.083S13.866.718,9.943.124A12.162,12.162,0,0,0,8.142,0C4.484,0,0,1.32,0,2.99Z" transform="translate(94.273 155.288) rotate(180)" fill="#7591b8"/>
    <ellipse id="Ellipse_33" data-name="Ellipse 33" cx="2.582" cy="2.496" rx="2.582" ry="2.496" transform="translate(164.244 74.874)"/>
    <path id="Path_203" data-name="Path 203" d="M8.426,49.471s.2-3.2,1.082-9.046C9.817,38.38,11.4,35.562,11.4,32.8A79.174,79.174,0,0,0,8.426,9.65C6.331,1.449,3.014,0,3.014,0A100.08,100.08,0,0,0,.178,19.219C-.129,28.77-.274,30.641,1.788,38.2a26.3,26.3,0,0,0,1.763,4.664A20.685,20.685,0,0,0,8.426,49.471Z" transform="translate(137.073 5.676)" fill="#ffe0e0"/>
    <path id="Intersection_1" data-name="Intersection 1" d="M36.491,3.1S31.427,9.12,28.134,13.232c-3.629,3.883-6.776,7.394-6.776,7.394H14.594S10.278,16.8,7.926,16.961c-2.815.195-5.855.616-7.783,4.507q-.066.061-.139.118c0,.021,0,.031,0,.031l1.629,5.2s10.994,6.4,13.972-2.886c.083-.257,7.541-1.754,12.48.752s10.312,12.8,10.312,12.8V27.933h2.583S36.76,23.022,35.359,17.6c-1.162-4.491.326-9.439,1.93-11.146A34.1,34.1,0,0,1,46.466,0,67.534,67.534,0,0,0,36.491,3.1Z" transform="translate(180.185 115.861) rotate(180)" fill="#cecece"/>
    <path id="Path_212" data-name="Path 212" d="M2.061.061,2.7.784A2.659,2.659,0,0,0,0,1.245,2,2,0,0,1,.676.227,1.926,1.926,0,0,1,2.061.061Z" transform="translate(165.277 75.444)" fill="#fff"/>
    <path id="Intersection_2" data-name="Intersection 2" d="M9.571.019S3,5.523,1.875,7.253c-3.844,5.926-.7,8.472,0,14.827,0,0,4.523-6.769,16.425-3.573s27,17.657,39.148,21.031c0,0-3.894-2.46-8.758-6.144s-4.067-11.315-4.067-11.315l-.125-.116a18.529,18.529,0,0,1-3.64,1.66c-2.7.027-17.045-15.154-17.045-15.154A137.832,137.832,0,0,0,9.735,0Z" transform="translate(113.804 115.721) rotate(180)" fill="#fff"/>
    <path id="Intersection_3" data-name="Intersection 3" d="M2.3.158A15.072,15.072,0,0,0,0,.734L1.153,5.327S.967,2.536,2.643,2.834,7.856,6.52,7.856,6.52L6.683,3.4a21.738,21.738,0,0,1,6.46,5.13,19.937,19.937,0,0,1,2.865,5.346c.135-2.141.214-6.982-1.518-9.8C12.221.377,6.837.158,6.837.158A17.039,17.039,0,0,0,4.477,0,14.06,14.06,0,0,0,2.3.158Z" transform="translate(16.072 95.827) rotate(180)" fill="#fff"/>
    <path id="Intersection_12" data-name="Intersection 12" d="M56.352.213,43.023,11.643,31.975,42.968,16.684,51.636A68.89,68.89,0,0,0,5.967,54.911S3.432,57.923.783,61.142c-1.791,7.2-.007,12.16.4,12.517,2.32,2.213,2.291,8.7,3.451,10.392,5.2,7.585,2.71,9.889,4.674,7.442.5-.622.973-3.867,2.05-3.83,1.86.061,4.266,2.663,5.028,3.543l.092-.086.015.009c-1.063-2.909-7.811-22.446.136-28.843,8.595-6.919,24.686-14.845,24.686-14.845L44.84,16.278s3.524-4.983,4.133-6.185c2.459-4.849,7.339-6.008,12.175-5.721A5.13,5.13,0,0,0,61,2.458,3.13,3.13,0,0,0,57.78,0,4.891,4.891,0,0,0,56.352.213Z" transform="translate(149.661 167.671) rotate(180)" fill="#9cb1ce"/>
    <path id="Path_315" data-name="Path 315" d="M0,0" transform="translate(142.631 75.5)" fill="none" stroke="#707070" stroke-width="1"/>
    <path id="Path_316" data-name="Path 316" d="M0,0" transform="translate(144.914 78.24)" fill="none" stroke="#707070" stroke-width="1"/>
    <path id="Path_317" data-name="Path 317" d="M11.951.056S.551-.869.019,4.822,10.064,21.747,10.064,21.747,3.187,11.465,3.659,6.042,11.951.056,11.951.056Z" transform="translate(139.693 67.739)" fill="#9cb1ce"/>
    <path id="Intersection_13" data-name="Intersection 13" d="M36.491,3.1S31.427,9.12,28.134,13.232c-3.629,3.883-6.776,7.394-6.776,7.394H14.594S10.278,16.8,7.926,16.961c-2.815.195-5.855.616-7.783,4.507q-.066.061-.139.118c0,.021,0,.031,0,.031l1.629,5.2s10.994,6.4,13.972-2.886c.083-.257,7.541-1.754,12.48.752s10.312,12.8,10.312,12.8V27.933h2.583S36.76,23.022,35.359,17.6c-1.162-4.491.326-9.439,1.93-11.146A34.1,34.1,0,0,1,46.466,0,67.534,67.534,0,0,0,36.491,3.1Z" transform="translate(180.185 115.861) rotate(180)" fill="#fff"/>
    <path id="Path_314" data-name="Path 314" d="M.869,8.212S-4.046,23.048,9.5,28.229a18.387,18.387,0,0,1,5.313,3.088,39.94,39.94,0,0,1-6.36-7.385A10.673,10.673,0,0,1,7,16.54l2.5,5.314,5.313,3.069-2.926-6.314,1.031-10.4V0l-7.3,3.825Z" transform="translate(126.519 98.202) rotate(166)" fill="#a0b1c1" opacity="0.414"/>
    <path id="Path_318" data-name="Path 318" d="M.409,23.645s-.256-1.466,1-8.545S10.629,0,10.629,0,2.462,5.258.1,13.208C-.242,15.861.409,23.645.409,23.645Z" transform="translate(57.26 68.24) rotate(73)" fill="#5b7e82"/>
  </g>
</svg>
