<svg xmlns="http://www.w3.org/2000/svg" xmlns:xlink="http://www.w3.org/1999/xlink" width="84.993" height="79.737" viewBox="0 0 84.993 79.737">
  <defs>
    <linearGradient id="linear-gradient" x1="0.531" y1="0.33" x2="0.5" y2="1" gradientUnits="objectBoundingBox">
      <stop offset="0" stop-color="#fef7f7"/>
      <stop offset="1" stop-color="#baa0db"/>
    </linearGradient>
    <filter id="RABBIT" x="0" y="0" width="84.993" height="79.737" filterUnits="userSpaceOnUse">
      <feOffset dy="10" input="SourceAlpha"/>
      <feGaussianBlur stdDeviation="5" result="blur"/>
      <feFlood flood-opacity="0.161"/>
      <feComposite operator="in" in2="blur"/>
      <feComposite in="SourceGraphic"/>
    </filter>
  </defs>
  <g transform="matrix(1, 0, 0, 1, 0, 0)" filter="url(#RABBIT)">
    <path id="RABBIT-2" data-name="RABBIT" d="M37.834,14.5c-.969,1.2-2.287,2.882-2.287,2.882s-1.866,1.262-5.382.007c-2.528-.9-5.74-3.066-8.349-3.873a27.333,27.333,0,0,0-6.553-1.025,8.131,8.131,0,0,0-5.623,1.56c-.692.878-2.454,2.414-2.645,3.983A21.224,21.224,0,0,1,5.72,23.087s-.4,1.507-1.3,1.589c-.695.063-1.636-.583-2,0C1.044,26.846-1.06,36.868.626,37.8c1.457.809,1.385-6.446,3.111-9.784.266-.515,1.976,0,1.976,0l-.783,1.9s-1.855,4.734-1.786,6.845,1.8,3.443,2.064,1.6S6.9,30.325,8.844,29.1s2.55.627,4.6-.645,3.166-4.619,5.246-4.592,6.373,4.8,9.31,5.212c.449.064,1.806.064,2.144.406.291.293-.976.57-.828,1.08.73,2.521,1.354,7.341,2.716,9.066,1.92,2.434,4.368.206,2.544-.545s-.94-9.606-.94-9.606.48-.726.953-.726.937.724.937.724a1.983,1.983,0,0,0,.574,1.078c1.143.567,4.358,2.964,6.379,3.546,3.2.923,6.3.283,3.545-.528a21.989,21.989,0,0,1-5.72-3.023l-1.684-1.485a24.381,24.381,0,0,0,2.14-4.719c.536-2,.01-2.052.212-2.472a1.1,1.1,0,0,1,1.239-.794,9.554,9.554,0,0,0,3.291,0A3.058,3.058,0,0,0,47.563,19L46.05,17a4.578,4.578,0,0,0-.536-1.661,19.691,19.691,0,0,0-3-2.42l1.553-2.034a16.011,16.011,0,0,0,1.464-6.553C45.353,1.246,45.007.716,44.078.06S42.1,4.341,42.1,4.341s-.539,8.255-1.067,8.069c-.406-.143-1.122-6.113-2.707-9.562-.921-2-2.836-2.422-3.318-2.209-.736.324-.818,1.94.294,5.266.852,2.548,3.205,6.342,3.341,7.024C38.775,13.576,38.8,13.293,37.834,14.5Z" transform="matrix(0.98, -0.21, 0.21, 0.98, 15, 14.89)" fill="url(#linear-gradient)"/>
  </g>
</svg>
