<svg xmlns="http://www.w3.org/2000/svg" xmlns:xlink="http://www.w3.org/1999/xlink" width="84.459" height="79.066" viewBox="0 0 84.459 79.066">
  <defs>
    <linearGradient id="linear-gradient" x1="0.531" y1="0.67" x2="0.5" gradientUnits="objectBoundingBox">
      <stop offset="0" stop-color="#fef7f7"/>
      <stop offset="1" stop-color="#baa0db"/>
    </linearGradient>
    <filter id="RABBIT" x="0" y="0" width="84.459" height="79.066" filterUnits="userSpaceOnUse">
      <feOffset dy="10" input="SourceAlpha"/>
      <feGaussianBlur stdDeviation="5" result="blur"/>
      <feFlood flood-opacity="0.161"/>
      <feComposite operator="in" in2="blur"/>
      <feComposite in="SourceGraphic"/>
    </filter>
  </defs>
  <g transform="matrix(1, 0, 0, 1, 0, 0)" filter="url(#RABBIT)">
    <path id="RABBIT-2" data-name="RABBIT" d="M37.83,26.244c-.969-1.2-2.286-2.882-2.286-2.882s-1.866-1.262-5.382-.006c-2.528.9-5.74,3.067-8.349,3.874a27.332,27.332,0,0,1-6.553,1.025,8.129,8.129,0,0,1-5.623-1.56c-.692-.878-2.454-2.414-2.644-3.983a21.223,21.223,0,0,0-1.274-5.057s-.4-1.507-1.3-1.589c-.695-.063-1.636.583-2,0C1.043,13.9-1.06,3.875.627,2.937c1.458-.81,1.385,6.446,3.109,9.784.266.515,1.976,0,1.976,0l-.782-1.9S3.075,6.088,3.145,3.977s1.8-3.444,2.064-1.6,1.685,8.04,3.634,9.26,2.55-.627,4.6.644,3.166,4.619,5.245,4.592,6.373-4.8,9.311-5.213c.449-.064,1.805-.064,2.144-.406.291-.293-.976-.57-.828-1.08.731-2.521,1.355-7.341,2.717-9.067C33.957-1.327,36.4.9,34.58,1.653s-.941,9.606-.941,9.606.48.726.953.726.937-.724.937-.724a1.984,1.984,0,0,1,.574-1.078c1.143-.567,4.358-2.964,6.379-3.546,3.2-.923,6.3-.284,3.544.528a21.993,21.993,0,0,0-5.72,3.024l-1.684,1.485a24.377,24.377,0,0,1,2.14,4.719c.536,2,.01,2.052.212,2.472a1.1,1.1,0,0,0,1.239.794,9.553,9.553,0,0,1,3.291,0,3.057,3.057,0,0,1,2.055,2.08l-1.512,1.993A4.58,4.58,0,0,1,45.51,25.4a19.7,19.7,0,0,1-3,2.42l1.552,2.034A16.011,16.011,0,0,1,45.524,36.4c-.176,3.091-.522,3.621-1.451,4.277S42.1,36.4,42.1,36.4s-.539-8.256-1.066-8.069c-.406.144-1.122,6.114-2.708,9.563-.921,2-2.837,2.422-3.319,2.21-.736-.324-.818-1.94.295-5.266.852-2.548,3.206-6.342,3.342-7.025C38.771,27.163,38.8,27.447,37.83,26.244Z" transform="translate(61.69 54.07) rotate(-169)" fill="url(#linear-gradient)"/>
  </g>
</svg>
