<svg xmlns="http://www.w3.org/2000/svg" xmlns:xlink="http://www.w3.org/1999/xlink" width="206.256" height="115.339" viewBox="0 0 206.256 115.339">
  <defs>
    <filter id="turtlebody" x="0" y="12.59" width="206.256" height="102.749" filterUnits="userSpaceOnUse">
      <feOffset dy="10" input="SourceAlpha"/>
      <feGaussianBlur stdDeviation="3" result="blur"/>
      <feFlood flood-opacity="0.161"/>
      <feComposite operator="in" in2="blur"/>
      <feComposite in="SourceGraphic"/>
    </filter>
  </defs>
  <g id="turtle_design" data-name="turtle design" transform="translate(9)">
    <g transform="matrix(1, 0, 0, 1, -9, 0)" filter="url(#turtlebody)">
      <path id="turtlebody-2" data-name="turtlebody" d="M-1623.028,1980.754h12.124s3.8,2.881,4.725,6.915c1.772,7.721,6.338,19.184,22.452,16.912,24.232-3.416,117.565,17.73,117.565,17.73s4.6,3.51,9.677,3.807,10.636-2.616,10.636-2.616-3.89,5.906-10.636,7.235-8.734.263-16.349-1.921c-.59-.169-7.236-2.7-7.236-2.7h-19.3l6.146,34.541s-2.869,3.844-9.248,3.844-9.811-2.828-9.811-2.828l2.889-35.557h-60.09l-14.24-1.733-11.318,15.9-1.116,16.6a19.979,19.979,0,0,1-8.642,1.729,15.715,15.715,0,0,1-9-2.856l5.957-22.962,14.784-10.764c-12.265-5.585-6.583-1.207-14.848-6.788s-11.906-17.788-11.906-17.788-14.937-5.432-14.266-9.78c.581-3.768,5.147-6.915,5.147-6.915Z" transform="translate(1643.1 -1968.16)" fill="#83d0af"/>
    </g>
    <path id="Path_306" data-name="Path 306" d="M-1498.192,2066.341v29.508a15.862,15.862,0,0,0,5.948,1.845c3.225.262,7.33-1.845,7.33-1.845l-5.112-29.508,81.6,4.414V2097.6a12.213,12.213,0,0,0,8.133,2.189,12.536,12.536,0,0,0,7.359-3.636l-5.938-31.353-75.665-7.619Z" transform="translate(1550.685 -2012.753)" fill="#459373"/>
    <path id="Intersection_10" data-name="Intersection 10" d="M124.545,37.339H64.455l-14.24-1.733L42.97,45.783,31.39,40.155l9.489-6.909c-12.265-5.585-6.583-1.207-14.848-6.788S14.125,8.671,14.125,8.671,1.582,4.109,0,0A16.927,16.927,0,0,0,4.987,3.406C9.3,5.239,15.339,5.231,20.3,3.406c1.031.667-.545,5.113,0,7.314.976,3.94,3.749,6.623,5.781,8.366A52,52,0,0,0,43.273,28.5l118.869,7.821s3.373,1.364,8.1,2.984c3.631,1.245,11.2-.223,14.5-.969a16.363,16.363,0,0,1-7.283,3.624c-6.746,1.328-8.734.263-16.349-1.921-.59-.169-7.236-2.7-7.236-2.7h-19.3l2.37,13.319-13.516.5Z" transform="translate(0.163 20.614)" fill="#558671" opacity="0.21"/>
    <path id="Path_296" data-name="Path 296" d="M-1556.129,1997.26l10.692,5.072s9.594,4.854,27.042,5.86,58.89.687,71.078,0c7.821-.441,17.235-1.777,17.235-1.777l13.106-9.155-16.007-39.64s-5.17-10.365-25.09-13.82-37.728-.468-53.587,0a38.965,38.965,0,0,0-26.214,13.82Z" transform="translate(1586.245 -1942.156)" fill="#86d4b2"/>
    <path id="Intersection_11" data-name="Intersection 11" d="M37.734,50.831c-17.448-1.006-27.042-5.86-27.042-5.86L0,39.9l4.327-9.4c1.21.522,2.44,1.062,3.686,1.6,7.281,3.156,15.1,6.311,22.478,5.879C56.33,36.47,81.269,35.221,99.7,29.29,117.257,23.642,122.038,11.192,123,0c.1.168.145.26.145.26L139.153,39.9l-13.106,9.155s-9.415,1.337-17.235,1.777c-6.655.375-22.027.641-37.458.641C58.526,51.472,45.655,51.288,37.734,50.831Z" transform="translate(30.116 15.205)" fill="#65bf99"/>
    <path id="Intersection_7" data-name="Intersection 7" d="M37.734,59.566c-17.448-1.006-27.042-5.86-27.042-5.86L0,48.634l2.93-6.361,14.36,8.278,13.348,1.562L39.4,22.051S28.957,8.362,25.22,2.479A40.021,40.021,0,0,1,29.138,0l14.3,19.256H101.17L115.42,1.484a29.382,29.382,0,0,1,4.373,3.391L103.925,23.663l9.385,30.417c6.582-.648,7.669-1.518,10.731-1.967,7.244-4.006,11.027-6.873,12.995-8.721l2.117,5.242-13.106,9.155s-9.415,1.337-17.235,1.777c-6.655.375-22.027.641-37.458.64C58.526,60.206,45.655,60.023,37.734,59.566Zm-.508-5.957S75.89,55.2,97.595,54.821c3.244-.056,6.007-.141,8.373-.246-.333-1.322-1.841-7.755-3.517-14.188-1.886-7.241-3.985-14.483-4.856-14.435-11.122.609-54.157,0-54.157,0Z" transform="translate(30.116 6.47)" fill="#f5f5d7"/>
    <path id="Path_299" data-name="Path 299" d="M-1466.4,1953.478l6.956,9.444,8.25-1.87v-6.238l23.408-4.411a184.778,184.778,0,0,0-21.866,0A80.564,80.564,0,0,0-1466.4,1953.478Z" transform="translate(1531.171 -1947.008)" fill="#fff6c3" opacity="0.997"/>
    <path id="Path_300" data-name="Path 300" d="M-1521.408,1983.359s-5.59,9.228-9.338,16.941a108.242,108.242,0,0,0-5.652,13.914,15.909,15.909,0,0,0,4.818,4.227,34.238,34.238,0,0,0,7.6,2.81l3.408-9.364-8.1-4.45,1.531-7.138Z" transform="translate(1574.134 -1967.445)" fill="#fff6c4"/>
    <path id="Path_301" data-name="Path 301" d="M-1445.517,2035.092a102.062,102.062,0,0,1-.846,11.757c-.579,3.223-3.5,10.731-3.5,10.731h13.315s2.692-6.838,3.192-10.731,1.259-11.757,1.259-11.757Z" transform="translate(1521.022 -1999.198)" fill="#fff6c1"/>
    <path id="Path_302" data-name="Path 302" d="M2.173,0A51.052,51.052,0,0,1,1.75,5.878,45.1,45.1,0,0,1,0,11.244H6.657a30.984,30.984,0,0,0,1.6-5.366C8.5,3.932,8.883,0,8.883,0Z" transform="matrix(1, 0.017, -0.017, 1, 87.866, 47.062)" fill="#fcffb9" opacity="0.632"/>
    <path id="Path_303" data-name="Path 303" d="M1.419,0a27.062,27.062,0,0,1-.276,3.456A24.694,24.694,0,0,1,0,6.61H4.349A16.9,16.9,0,0,0,5.392,3.456C5.556,2.312,5.8,0,5.8,0Z" transform="translate(83.678 14.812) rotate(-107)" fill="#fff4b5" opacity="0.632"/>
    <path id="Path_304" data-name="Path 304" d="M1.419,0a27.062,27.062,0,0,1-.276,3.456A24.7,24.7,0,0,1,0,6.61H4.349A16.9,16.9,0,0,0,5.392,3.456C5.556,2.312,5.8,0,5.8,0Z" transform="translate(54.607 40.746) rotate(-169)" fill="#fff4b5" opacity="0.632"/>
    <path id="Path_305" data-name="Path 305" d="M3.475,0A66.267,66.267,0,0,1,2.8,8.46,60.457,60.457,0,0,1,0,16.183H10.647A41.372,41.372,0,0,0,13.2,8.46C13.6,5.659,14.207,0,14.207,0Z" transform="translate(143.844 40.333) rotate(-33)" fill="#fff4b5" opacity="0.632"/>
    <path id="Intersection_9" data-name="Intersection 9" d="M95.121,5.67c.178-.973,1.388-6.729,4.16-.339l.037.086a11.72,11.72,0,0,1-1.53.282,10.429,10.429,0,0,1-1.207.07A10.918,10.918,0,0,1,95.121,5.67Zm-4.935-1.8c.666-1.36,2.757-4.976,3.489,1.461l.006.051A12.989,12.989,0,0,1,90.186,3.87Zm14.546-1.392a12.919,12.919,0,0,1-3.809,2.41C100.872,2.909,101.139-1.291,104.732,2.477ZM5.841,3.609a13.482,13.482,0,0,1-2.4-.427c.6-1.518,2.423-5.306,3.865.4-.3.03-.6.047-.893.047C6.222,3.631,6.03,3.624,5.841,3.609Zm6.415-1.422A20.457,20.457,0,0,1,8.883,3.317C9.1,1.444,9.871-2.451,12.256,2.186ZM0,1.823c.731-1.26,2.305-3.389,2.584,1.1A16.283,16.283,0,0,1,0,1.823Z" transform="translate(52.6 81.333)" fill="#d1dca3"/>
    <circle id="Ellipse_37" data-name="Ellipse 37" cx="2.776" cy="2.776" r="2.776" transform="translate(28.631 63.561)" fill="#d1dca3"/>
    <ellipse id="Ellipse_38" data-name="Ellipse 38" cx="1.586" cy="1.19" rx="1.586" ry="1.19" transform="translate(31.803 69.112)" fill="#d1dca3"/>
    <ellipse id="Ellipse_39" data-name="Ellipse 39" cx="2.379" cy="2.776" rx="2.379" ry="2.776" transform="translate(16.736 14.393)" fill="#d1dca3"/>
    <circle id="Ellipse_40" data-name="Ellipse 40" cx="1.19" cy="1.19" r="1.19" transform="translate(21.494 14.393)" fill="#d1dca3"/>
    <circle id="Ellipse_41" data-name="Ellipse 41" cx="1.586" cy="1.586" r="1.586" transform="translate(4.84 13.6)" fill="#d1dca3"/>
    <circle id="Ellipse_42" data-name="Ellipse 42" cx="2.776" cy="2.776" r="2.776" transform="translate(13.564 15.186)"/>
    <path id="Path_308" data-name="Path 308" d="M-1324.307,1069.443l-.685.779a2.862,2.862,0,0,1,2.9.5,2.155,2.155,0,0,0-.723-1.095A2.073,2.073,0,0,0-1324.307,1069.443Z" transform="translate(1340.029 -1052.925)" fill="#fff"/>
    <path id="Intersection_8" data-name="Intersection 8" d="M108.9,10.438c.574-1.574,2.77-6.6,5.486-.176a14.388,14.388,0,0,1-3.056.318A20.563,20.563,0,0,1,108.9,10.438Zm-6.347-2.006c1.021-1.667,3.014-3.752,4.614,1.719A16.046,16.046,0,0,1,102.551,8.433ZM119.3,7.978a11.471,11.471,0,0,1-2.892,1.668C116.433,7.825,116.822,4.925,119.3,7.978ZM6.009,4.389C6,4.073,6,3.863,6,3.863s3.077-6.843,5.184.612l.031.11c-.691.063-1.43.1-2.214.1A15.349,15.349,0,0,1,6.009,4.389ZM17.06,3.22A19.532,19.532,0,0,1,12.375,4.45C12.493,3.967,14.289-3.108,17.06,3.22ZM0,1.828l.056-.216C1.273.236,4.018-2.061,4.975,3.863q.025.152.048.3A15.075,15.075,0,0,1,0,1.828Z" transform="translate(20.302 85.759)" fill="#fff6c4"/>
  </g>
</svg>
